<svg xmlns="http://www.w3.org/2000/svg" viewBox="8 -4 84 84"><defs><linearGradient id="g" x1="37.25" y1="24.05" x2="62.53" y2="46.85" gradientUnits="userSpaceOnUse"><stop offset=".19" stop-color="#2b591a"/><stop offset=".28" stop-color="#3d7f26"/><stop offset=".43" stop-color="#54af36"/><stop offset=".55" stop-color="#65d241"/><stop offset=".65" stop-color="#6fe748"/><stop offset=".72" stop-color="#73ef4b"/></linearGradient></defs><g><polygon fill="#121410" points="24.04 48.19 14.93 53.45 24.04 58.7 24.04 48.19"/><polygon fill="#353534" points="45.78 10.53 36.67 5.27 24.04 12.57 24.04 23.08 45.78 10.53"/><polygon fill="#353534" points="45.78 10.53 45.78 0.01 36.67 5.27 45.78 10.53"/><polygon fill="#353534" points="14.93 42.93 14.93 53.45 24.04 48.19 14.93 42.93"/><polygon fill="#353534" points="24.04 23.08 24.04 23.08 24.04 12.57 14.93 17.82 24.04 23.08"/><polygon fill="#353534" points="24.04 48.19 24.04 23.08 24.04 23.08 14.93 28.34 14.93 42.93 24.04 48.19"/><polygon fill="#121410" points="14.93 17.82 14.93 28.34 24.04 23.08 14.93 17.82"/><polygon fill="#121410" points="45.79 10.52 54.9 5.26 45.79 0 45.79 10.52"/><polygon fill="#121410" points="75.53 25.07 84.64 19.81 75.53 14.55 75.53 25.07"/><polygon fill="#353534" points="53.79 62.73 53.79 73.24 62.9 67.98 53.79 62.73"/><polygon fill="#353534" points="53.79 62.73 62.9 67.98 75.53 60.69 75.53 50.17 53.79 62.73"/><polygon fill="#121410" points="53.78 62.74 44.67 68 53.78 73.26 53.78 62.74"/><polygon fill="#353534" points="84.64 30.33 84.64 19.81 75.53 25.07 84.64 30.33"/><polygon fill="#121410" points="75.53 50.17 75.53 50.17 75.53 60.69 84.64 55.43 75.53 50.17"/><polygon fill="#353534" points="75.53 25.07 75.53 50.17 75.53 50.17 84.64 44.91 84.64 30.33 75.53 25.07"/><polygon fill="#353534" points="84.64 55.43 84.64 44.91 75.53 50.17 84.64 55.43"/><polygon fill="url(#g)" points="58.35 22.86 54.08 27.11 30.51 49.93 44.18 50.02 71.36 22.84 58.35 22.86"/></g></svg>
